# xmcd
#
# Track frame offsets:
# 150
# 16605
# 36173
# 53952
# 80221
# 98021
# 112204
# 120785
# 143154
# 157408
# 172249
# 190396
# 203403
# 218154
#
# Disc length: 3265 seconds
#
#
# Revision: 0
# Processed by: cddbd v1.5.2PL0 Copyright (c) Steve Scherf et al.
# Submitted via: FreeRIP 2.944 
#
DISCID=c50cbf0e
DTITLE=The Rhythm Chiefs - Ships Of Wonder
DYEAR=2008
DGENRE=Blues
TTITLE0=High Water
TTITLE1=Gone Ridin'
TTITLE2=Tell Me
TTITLE3=Ships Of Wonder
TTITLE4=Five More Miles
TTITLE5=Break The Bottle
TTITLE6=Tribute To Jimmy B
TTITLE7=The Buzz
TTITLE8=Please Don't Love Me
TTITLE9=It Wasn't Me
TTITLE10=What's Your Color
TTITLE11=Here Comes The Rain Again
TTITLE12=Looky There
TTITLE13=Chiefs
EXTD=
EXTT0=
EXTT1=
EXTT2=
EXTT3=
EXTT4=
EXTT5=
EXTT6=
EXTT7=
EXTT8=
EXTT9=
EXTT10=
EXTT11=
EXTT12=
EXTT13=
PLAYORDER=
